<svg xmlns="http://www.w3.org/2000/svg" viewBox="0 0 24.1 22"><defs><style>.a{fill:#f3745b;}</style></defs><title>arrow-line-orange</title><path class="a" d="M318,385.58a.39.39,0,0,0,0-.07v-.05l0-.07v0l0,0-.05-.06,0,0,0,0,0,0-.05,0h-.13l-.09,0h0l-23.3,9.6a.4.4,0,0,0,0,.74l8.66,3.5v7.73a.4.4,0,0,0,.29.39h.11a.4.4,0,0,0,.34-.19l3.44-5.73,6.28,3.36a.4.4,0,0,0,.58-.27L318,385.66s0,0,0,0A.4.4,0,0,0,318,385.58Zm-2.33,1.22-12.55,11.51-7.76-3.13Zm-12.07,18.53v-5.89l2.68,1.43Zm9.58-1.68-9.29-5L316,387.52l.87-.8Z" transform="translate(-293.86 -385.17)"/></svg>