<svg xmlns="http://www.w3.org/2000/svg" viewBox="0 0 20.56 22"><defs><style>.a{fill:#f3745a;}</style></defs><title>i--phone--line--orange</title><path class="a" d="M16.35,22h-.3a8.84,8.84,0,0,1-3.38-.85,14.35,14.35,0,0,1-3.1-2,22,22,0,0,1-1.83-1.69,29,29,0,0,1-2.84-3.39A17.7,17.7,0,0,1,3,10.89a10.89,10.89,0,0,1-.83-2.79c0-.23-.05-.46-.07-.69s0-.2,0-.3V6.51l0-.29a7.24,7.24,0,0,1,.57-2.35,6.79,6.79,0,0,1,1-1.66,6.94,6.94,0,0,1,.95-.93L5.31.75,5.5.59A2.57,2.57,0,0,1,6.22.13,1.65,1.65,0,0,1,7.7.23a3.51,3.51,0,0,1,1,.85,11,11,0,0,1,.81,1.16l.17.27a10.89,10.89,0,0,1,.7,1.21A4.14,4.14,0,0,1,10.74,5a2.24,2.24,0,0,1-.59,1.84c-.16.17-.33.32-.49.47l-.26.23a6,6,0,0,1-.65.51l-.16.11a1.24,1.24,0,0,0-.52.69,1.6,1.6,0,0,0,0,.79,4.32,4.32,0,0,0,.47,1.13,12.32,12.32,0,0,0,1.33,1.88,18.58,18.58,0,0,0,1.5,1.61,7.36,7.36,0,0,0,1.41,1.09,2.5,2.5,0,0,0,.9.34,1.15,1.15,0,0,0,1-.3,1.58,1.58,0,0,0,.17-.16,7.39,7.39,0,0,1,.89-.85l.09-.08a5,5,0,0,1,.63-.48,2.29,2.29,0,0,1,1.95-.2,4.34,4.34,0,0,1,1.38.76c.36.29.72.59,1.07.89l.28.24a6.85,6.85,0,0,1,.93.93,2.91,2.91,0,0,1,.51.88A1.64,1.64,0,0,1,22.26,19a4.77,4.77,0,0,1-.47.47l-.12.11c-.29.27-.58.53-.88.79a6.63,6.63,0,0,1-2.29,1.26A7.07,7.07,0,0,1,16.35,22ZM2.88,6.95V7c0,.1,0,.21,0,.31s0,.43.06.64a10.14,10.14,0,0,0,.77,2.6,17,17,0,0,0,1.76,3,28.19,28.19,0,0,0,2.77,3.3A21.29,21.29,0,0,0,10,18.57,13.59,13.59,0,0,0,13,20.45a8.09,8.09,0,0,0,3.1.78,6.36,6.36,0,0,0,2.19-.29,5.87,5.87,0,0,0,2-1.11c.29-.25.58-.51.86-.77l.12-.11a4.18,4.18,0,0,0,.39-.39.88.88,0,0,0,.17-.93,2.19,2.19,0,0,0-.39-.65,6.13,6.13,0,0,0-.83-.83l-.28-.24c-.35-.3-.7-.59-1.05-.87a3.55,3.55,0,0,0-1.14-.63,1.54,1.54,0,0,0-1.32.12,4.37,4.37,0,0,0-.53.41l-.09.08a6.7,6.7,0,0,0-.8.76,2.31,2.31,0,0,1-.24.24,1.91,1.91,0,0,1-1.57.48,3.22,3.22,0,0,1-1.18-.43,8.07,8.07,0,0,1-1.56-1.2A19.3,19.3,0,0,1,9.3,13.18a13,13,0,0,1-1.41-2,5.06,5.06,0,0,1-.55-1.33,2.36,2.36,0,0,1,0-1.16,2,2,0,0,1,.81-1.12l.17-.12A5.43,5.43,0,0,0,8.88,7l.28-.25c.16-.14.31-.27.44-.41A1.49,1.49,0,0,0,10,5.12,3.27,3.27,0,0,0,9.65,4,10.13,10.13,0,0,0,9,2.92l-.17-.27a10.31,10.31,0,0,0-.75-1.08A2.77,2.77,0,0,0,7.33.9.9.9,0,0,0,6.5.84,1.82,1.82,0,0,0,6,1.16l-.19.17-.64.54a6.17,6.17,0,0,0-.85.83,6,6,0,0,0-.91,1.47,6.48,6.48,0,0,0-.51,2.1Z" transform="translate(-2.11 0)"/></svg>