<svg xmlns="http://www.w3.org/2000/svg" viewBox="0 0 24.1 22"><defs><style>.a{fill:#f3745a;}</style></defs><title>i--plane--orange</title><path class="a" d="M24.1.41a.39.39,0,0,0,0-.07V.28l0-.07v0l0,0L24,.11l0,0,0,0,0,0-.05,0h-.13l-.09,0h0L.25,9.63a.4.4,0,0,0,0,.74l8.66,3.5V21.6A.4.4,0,0,0,9.2,22h.11a.4.4,0,0,0,.34-.19l3.44-5.73,6.28,3.36a.4.4,0,0,0,.58-.27L24.1.49s0,0,0,0A.4.4,0,0,0,24.1.41ZM21.78,1.63,9.22,13.13,1.46,10ZM9.71,20.16V14.27l2.68,1.43Zm9.58-1.68-9.29-5L22.17,2.35l.87-.8Z" transform="translate(0 0)"/></svg>