<svg enable-background="new 0 0 24.002 24" height="24" viewBox="0 0 24.002 24" width="24.002" xmlns="http://www.w3.org/2000/svg"><path d="m3.3457 18.7773c-.8477 0-1.5645.5615-1.7979 1.332l-.8159 2.6895c-.0103.0342-.0156.0713-.0156.1094 0 .207.1685.376.3755.376.0386 0 .0752-.0068.1099-.0166l2.6899-.8154c.7705-.2334 1.332-.9502 1.332-1.7969 0-1.0371-.8408-1.878-1.8779-1.878zm19.5313-18.7773c-4.0508 0-7.9609.1768-11.249 2.3174-1.7344 1.1299-3.1748 2.71-4.3369 4.4766-2.8106.1718-5.4288 1.5956-7.0821 3.913-.2251.3164-.2715.7266-.1235 1.084.1479.3594.4702.6162.8535.6807 1.0122.1709 2.1333.625 3.2661 1.2949-.2051.749-.3711 1.4766-.4893 2.1572-.0635.3613.0537.7314.3135.9902l3.0566 3.0557c.2129.2129.5.3291.7969.3291.0645 0 .127-.0049.1924-.0166.6826-.1172 1.4092-.2842 2.1592-.4883.6699 1.1328 1.124 2.2549 1.2949 3.2666.0645.3828.3223.7051.6816.8545.1387.0577.2842.085.4297.085.2314 0 .4609-.0723.6543-.21 2.3164-1.6523 3.7422-4.2695 3.9121-7.0811 1.7676-1.1631 3.3477-2.6016 4.4766-4.3359 2.1396-3.2861 2.3184-7.3584 2.3184-11.248.0019-.6211-.503-1.125-1.125-1.125zm-20.4043 10.917c.9932-1.0195 2.2539-1.7314 3.627-2.0605-.5186 1.0137-.957 2.0498-1.3184 3.0713-.7774-.4288-1.5538-.7735-2.3086-1.0108zm10.6123 10.6103c-.2373-.7559-.582-1.5322-1.0117-2.3086 1.0225-.3623 2.0586-.7998 3.0723-1.3184-.3292 1.3722-1.0401 2.6349-2.0606 3.627zm6.7109-10.3837c-2.335 3.5869-7.3721 5.9629-11.5381 6.8125l-2.2139-2.2139c.8496-4.166 3.2266-9.2012 6.8125-11.5361 2.4873-1.6191 5.6006-1.9043 8.8867-1.9473-.041 3.2861-.3281 6.3984-1.9472 8.8848zm-3.6807-1.3799c1.0371 0 1.8789-.8398 1.8789-1.877s-.8418-1.8779-1.8789-1.8779-1.877.8408-1.877 1.8779.8399 1.877 1.877 1.877z" fill="#bcc6d0"/></svg>