<svg xmlns="http://www.w3.org/2000/svg" viewBox="0 0 24.42 19.96"><defs><style>.a{fill:#f3745a;}</style></defs><title>i--twitter--line--orange</title><path class="a" d="M7.85,21H7.27A14,14,0,0,1,2,19.74c-.4-.18-.8-.4-1.18-.6l-.52-.28L0,18.73.16,18l.33,0a9.42,9.42,0,0,0,6-1.38,5.09,5.09,0,0,1-2.67-1.52,5,5,0,0,1-1.16-2l-.19-.6.62.1.45.06A5.09,5.09,0,0,1,1,8.17L1,7.6l.51.26a5.29,5.29,0,0,0,.73.31A5.1,5.1,0,0,1,1,5.33a5.09,5.09,0,0,1,.67-3.18l.27-.47.35.41A13.52,13.52,0,0,0,11.53,7c0-.15,0-.3,0-.46a4.94,4.94,0,0,1,.91-3.2,5.06,5.06,0,0,1,4-2.25,5,5,0,0,1,3.85,1.41c.08.07.08.07.17,0a9.56,9.56,0,0,0,2.42-.93L23,1.52,24,1l-.3.89A5.3,5.3,0,0,1,22.6,3.79a9.77,9.77,0,0,0,1.15-.41L24,3.27l.39.51L24.24,4l-.35.41c-.27.32-.54.65-.84,1a10,10,0,0,1-.86.76l-.26.21a14.47,14.47,0,0,1-3.43,9.74,13.13,13.13,0,0,1-6,4.12A14.46,14.46,0,0,1,7.85,21ZM1.93,18.88l.35.17a13.18,13.18,0,0,0,5,1.18,13.82,13.82,0,0,0,5-.7,12.37,12.37,0,0,0,5.65-3.88,13.72,13.72,0,0,0,3.25-9.26.69.69,0,0,1,.27-.58l.27-.22a9.28,9.28,0,0,0,.79-.7l.33-.36a8.4,8.4,0,0,1-1.5.29L19.85,5l1.23-.84A4.81,4.81,0,0,0,22.5,2.64a10.81,10.81,0,0,1-1.88.64A.87.87,0,0,1,19.75,3a4.27,4.27,0,0,0-3.28-1.2A4.33,4.33,0,0,0,13,3.76a4.19,4.19,0,0,0-.77,2.71c0,.19,0,.39.05.59l.07.75-.45,0A14.25,14.25,0,0,1,2.08,3a4.23,4.23,0,0,0-.33,2.22A4.44,4.44,0,0,0,3.7,8.47l1,.74-1.25,0A5.11,5.11,0,0,1,1.73,8.8a4.53,4.53,0,0,0,3.5,3.82L6.69,13l-1.45.39a5.15,5.15,0,0,1-1.64.17,4.23,4.23,0,0,0,.76,1.11,4.47,4.47,0,0,0,3.18,1.41l1.06.05-.85.64A10.11,10.11,0,0,1,1.93,18.88Z" transform="translate(0 -1.04)"/></svg>